<?xml version="1.0" encoding="us-ascii" standalone="no"?><svg xmlns="http://www.w3.org/2000/svg" xmlns:xlink="http://www.w3.org/1999/xlink" contentStyleType="text/css" height="1583px" preserveAspectRatio="none" style="width:1391px;height:1583px;background:#FFFFFF;" version="1.1" viewBox="0 0 1391 1583" width="1391px" zoomAndPan="magnify"><defs/><g><ellipse cx="700.625" cy="20" fill="#222222" rx="10" ry="10" style="stroke:#222222;stroke-width:1.0;"/><path d="M819.125,40 L819.125,71.2656 L799.125,75.2656 L819.125,79.2656 L819.125,110.5313 A0,0 0 0 0 819.125,110.5313 L1222.125,110.5313 A0,0 0 0 0 1222.125,110.5313 L1222.125,50 L1212.125,40 L819.125,40 A0,0 0 0 0 819.125,40 " fill="#FEFFDD" style="stroke:#181818;stroke-width:0.5;"/><path d="M1212.125,40 L1212.125,50 L1222.125,50 L1212.125,40 " fill="#FEFFDD" style="stroke:#181818;stroke-width:0.5;"/><text fill="#000000" font-family="sans-serif" font-size="13" lengthAdjust="spacing" textLength="382" x="825.125" y="57.0669">Reads the configuration entries,remote and local TSAP port,</text><text fill="#000000" font-family="sans-serif" font-size="13" lengthAdjust="spacing" textLength="369" x="825.125" y="72.1997">pollingInterval, smoothing, cycle interval and max number</text><text fill="#000000" font-family="sans-serif" font-size="13" lengthAdjust="spacing" textLength="209" x="825.125" y="87.3325">of IO failures for reconnection via</text><text fill="#000000" font-family="sans-serif" font-size="13" font-weight="bold" lengthAdjust="spacing" textLength="264" x="825.125" y="102.4653">RAMS7200Resources::readSection()</text><rect fill="#F1F1F1" height="33.9688" rx="12.5" ry="12.5" style="stroke:#181818;stroke-width:0.5;" width="197" x="602.125" y="58.2813"/><text fill="#000000" font-family="sans-serif" font-size="12" lengthAdjust="spacing" textLength="32" x="612.125" y="79.4199">Read</text><text fill="#000000" font-family="sans-serif" font-size="12" font-weight="bold" lengthAdjust="spacing" textLength="119" x="648.125" y="79.4199">config.RAMS7200</text><text fill="#000000" font-family="sans-serif" font-size="12" lengthAdjust="spacing" textLength="18" x="771.125" y="79.4199">file</text><rect fill="#F1F1F1" height="33.9688" rx="12.5" ry="12.5" style="stroke:#181818;stroke-width:0.5;" width="203" x="599.125" y="130.5313"/><text fill="#000000" font-family="sans-serif" font-size="12" lengthAdjust="spacing" textLength="179" x="609.125" y="151.6699">RAMS7200HWService::start()</text><path d="M141.125,180.7695 L141.125,236.168 A0,0 0 0 0 141.125,236.168 L473.125,236.168 A0,0 0 0 0 473.125,236.168 L473.125,212.4688 L493.125,208.4688 L473.125,204.4688 L473.125,190.7695 L463.125,180.7695 L141.125,180.7695 A0,0 0 0 0 141.125,180.7695 " fill="#FEFFDD" style="stroke:#181818;stroke-width:0.5;"/><path d="M463.125,180.7695 L463.125,190.7695 L473.125,190.7695 L463.125,180.7695 " fill="#FEFFDD" style="stroke:#181818;stroke-width:0.5;"/><text fill="#000000" font-family="sans-serif" font-size="13" font-weight="bold" lengthAdjust="spacing" textLength="282" x="152.125" y="197.8364">RAMS7200HWService::handleNewMS()</text><text fill="#000000" font-family="sans-serif" font-size="13" lengthAdjust="spacing" textLength="311" x="147.125" y="212.9692">(also callback for new MS addressed in the driver</text><text fill="#000000" font-family="sans-serif" font-size="13" lengthAdjust="spacing" textLength="18" x="147.125" y="228.1021">via</text><text fill="#000000" font-family="sans-serif" font-size="13" font-weight="bold" lengthAdjust="spacing" textLength="152" x="169.125" y="228.1021">setNewMSCallback()</text><text fill="#000000" font-family="sans-serif" font-size="13" lengthAdjust="spacing" textLength="5" x="321.125" y="228.1021">)</text><rect fill="#F1F1F1" height="47.9375" rx="12.5" ry="12.5" style="stroke:#181818;stroke-width:0.5;" width="415" x="493.125" y="184.5"/><text fill="#000000" font-family="sans-serif" font-size="12" lengthAdjust="spacing" textLength="395" x="503.125" y="205.6387">Launch a thread for each IP Address associated with the driver</text><text fill="#000000" font-family="sans-serif" font-size="12" lengthAdjust="spacing" textLength="4" x="503.125" y="219.6074">&#160;</text><rect fill="#555555" height="6" rx="2.5" ry="2.5" style="stroke:#555555;stroke-width:1.0;" width="791" x="305.125" y="256.168"/><rect fill="#F1F1F1" height="33.9688" rx="12.5" ry="12.5" style="stroke:#181818;stroke-width:0.5;" width="199" x="319.125" y="284.7344"/><text fill="#000000" font-family="sans-serif" font-size="12" lengthAdjust="spacing" textLength="179" x="329.125" y="305.873">ThreadPerIP for IP Address 1</text><ellipse cx="418.625" cy="348.7031" fill="#F1F1F1" rx="10" ry="10" style="stroke:#181818;stroke-width:0.5;"/><path d="M416.2969,344.4531 L421.3281,344.4531 L421.3281,345.4531 L417.4844,345.4531 L417.4844,348.0313 L420.9531,348.0313 L420.9531,349.0313 L417.4844,349.0313 L417.4844,353.2031 L416.2969,353.2031 L416.2969,344.4531 Z " fill="#000000"/><rect fill="#F1F1F1" height="33.9688" rx="12.5" ry="12.5" style="stroke:#181818;stroke-width:0.5;" width="203" x="546.125" y="284.7344"/><text fill="#000000" font-family="sans-serif" font-size="12" lengthAdjust="spacing" textLength="183" x="556.125" y="305.873">ThreadPerIP for IP Address ...</text><ellipse cx="647.625" cy="348.7031" fill="#F1F1F1" rx="10" ry="10" style="stroke:#181818;stroke-width:0.5;"/><path d="M645.2969,344.4531 L650.3281,344.4531 L650.3281,345.4531 L646.4844,345.4531 L646.4844,348.0313 L649.9531,348.0313 L649.9531,349.0313 L646.4844,349.0313 L646.4844,353.2031 L645.2969,353.2031 L645.2969,344.4531 Z " fill="#000000"/><rect fill="#F1F1F1" height="33.9688" rx="12.5" ry="12.5" style="stroke:#181818;stroke-width:0.5;" width="200" x="777.125" y="282.168"/><text fill="#000000" font-family="sans-serif" font-size="12" lengthAdjust="spacing" textLength="180" x="787.125" y="303.3066">ThreadPerIP for IP Address N</text><path d="M907.125,336.1367 L907.125,344.7031 L887.125,348.7031 L907.125,352.7031 L907.125,361.2695 A0,0 0 0 0 907.125,361.2695 L1082.125,361.2695 A0,0 0 0 0 1082.125,361.2695 L1082.125,346.1367 L1072.125,336.1367 L907.125,336.1367 A0,0 0 0 0 907.125,336.1367 " fill="#FEFFDD" style="stroke:#181818;stroke-width:0.5;"/><path d="M1072.125,336.1367 L1072.125,346.1367 L1082.125,346.1367 L1072.125,336.1367 " fill="#FEFFDD" style="stroke:#181818;stroke-width:0.5;"/><text fill="#000000" font-family="sans-serif" font-size="13" font-weight="bold" lengthAdjust="spacing" textLength="154" x="913.125" y="353.2036">RAMS7200LibFacade</text><ellipse cx="877.125" cy="348.7031" fill="#F1F1F1" rx="10" ry="10" style="stroke:#181818;stroke-width:0.5;"/><path d="M874.7969,344.4531 L879.8281,344.4531 L879.8281,345.4531 L875.9844,345.4531 L875.9844,348.0313 L879.4531,348.0313 L879.4531,349.0313 L875.9844,349.0313 L875.9844,353.2031 L874.7969,353.2031 L874.7969,344.4531 Z " fill="#000000"/><rect fill="#555555" height="6" rx="2.5" ry="2.5" style="stroke:#555555;stroke-width:1.0;" width="791" x="305.125" y="371.2695"/><rect fill="#555555" height="6" rx="2.5" ry="2.5" style="stroke:#555555;stroke-width:1.0;" width="1369.25" x="11" y="397.2695"/><rect fill="none" height="398.3633" style="stroke:#000000;stroke-width:1.5;" width="465" x="23" y="564.312"/><path d="M267,564.312 L267,573.6089 L257,583.6089 L23,583.6089 " fill="none" style="stroke:#000000;stroke-width:1.5;"/><text fill="#000000" font-family="sans-serif" font-size="14" lengthAdjust="spacing" textLength="234" x="26" y="578.3071">RAMS7200HWService::writeData()</text><ellipse cx="255.5" cy="610.6089" fill="#222222" rx="10" ry="10" style="stroke:#222222;stroke-width:1.0;"/><rect fill="#F1F1F1" height="33.9688" rx="12.5" ry="12.5" style="stroke:#181818;stroke-width:0.5;" width="206" x="152.5" y="655.6089"/><text fill="#000000" font-family="sans-serif" font-size="12" lengthAdjust="spacing" textLength="186" x="162.5" y="676.7476">Decode HWObject from WinCC</text><polygon fill="#F1F1F1" points="92,749.5776,208,749.5776,220,761.5776,208,773.5776,92,773.5776,80,761.5776,92,749.5776" style="stroke:#181818;stroke-width:0.5;"/><text fill="#000000" font-family="sans-serif" font-size="11" lengthAdjust="spacing" textLength="116" x="92" y="765.3857">object is an MS item</text><rect fill="#F1F1F1" height="33.9688" rx="12.5" ry="12.5" style="stroke:#181818;stroke-width:0.5;" width="234" x="33" y="793.5776"/><text fill="#000000" font-family="sans-serif" font-size="12" font-weight="bold" lengthAdjust="spacing" textLength="214" x="43" y="814.7163">RAMS7200MS::queuePLCItem()</text><polygon fill="#F1F1F1" points="299,749.5776,416,749.5776,428,761.5776,416,773.5776,299,773.5776,287,761.5776,299,749.5776" style="stroke:#181818;stroke-width:0.5;"/><text fill="#000000" font-family="sans-serif" font-size="11" lengthAdjust="spacing" textLength="117" x="299" y="765.3857">object is Config item</text><rect fill="#F1F1F1" height="33.9688" rx="12.5" ry="12.5" style="stroke:#181818;stroke-width:0.5;" width="95" x="310" y="793.5776"/><text fill="#000000" font-family="sans-serif" font-size="12" lengthAdjust="spacing" textLength="75" x="320" y="814.7163">Apply config</text><ellipse cx="255.5" cy="933.5464" fill="none" rx="11" ry="11" style="stroke:#222222;stroke-width:1.0;"/><ellipse cx="255.5" cy="933.5464" fill="#222222" rx="6" ry="6" style="stroke:#222222;stroke-width:1.0;"/><rect fill="none" height="366.5117" style="stroke:#000000;stroke-width:1.5;" width="558" x="118" y="996.5464"/><path d="M361,996.5464 L361,1005.8433 L351,1015.8433 L118,1015.8433 " fill="none" style="stroke:#000000;stroke-width:1.5;"/><text fill="#000000" font-family="sans-serif" font-size="14" lengthAdjust="spacing" textLength="233" x="121" y="1010.5415">RAMS7200HWService::workProc()</text><ellipse cx="255.5" cy="1035.8433" fill="#222222" rx="10" ry="10" style="stroke:#222222;stroke-width:1.0;"/><path d="M363,1187.4683 L363,1196.0347 L343,1200.0347 L363,1204.0347 L363,1212.6011 A0,0 0 0 0 363,1212.6011 L623,1212.6011 A0,0 0 0 0 623,1212.6011 L623,1197.4683 L613,1187.4683 L363,1187.4683 A0,0 0 0 0 363,1187.4683 " fill="#FEFFDD" style="stroke:#181818;stroke-width:0.5;"/><path d="M613,1187.4683 L613,1197.4683 L623,1197.4683 L613,1187.4683 " fill="#FEFFDD" style="stroke:#181818;stroke-width:0.5;"/><text fill="#000000" font-family="sans-serif" font-size="13" font-weight="bold" lengthAdjust="spacing" textLength="239" x="369" y="1204.5352">DrvManager::getSelfPtr()-&gt;toDp</text><rect fill="#F1F1F1" height="33.9688" rx="12.5" ry="12.5" style="stroke:#181818;stroke-width:0.5;" width="175" x="168" y="1183.0503"/><text fill="#000000" font-family="sans-serif" font-size="12" lengthAdjust="spacing" textLength="155" x="178" y="1204.189">push DPE entry to WinCC</text><polygon fill="#F1F1F1" points="171,1134.6479,340,1134.6479,352,1146.6479,340,1158.6479,171,1158.6479,159,1146.6479,171,1134.6479" style="stroke:#181818;stroke-width:0.5;"/><text fill="#000000" font-family="sans-serif" font-size="11" lengthAdjust="spacing" textLength="20" x="259.5" y="1168.8584">yes</text><text fill="#000000" font-family="sans-serif" font-size="11" lengthAdjust="spacing" textLength="169" x="171" y="1150.4561">item addressed in the driver?</text><polygon fill="#F1F1F1" points="255.5,1241.4214,267.5,1253.4214,255.5,1265.4214,243.5,1253.4214,255.5,1241.4214" style="stroke:#181818;stroke-width:0.5;"/><polygon fill="#F1F1F1" points="164,1073.8433,347,1073.8433,359,1085.8433,347,1097.8433,164,1097.8433,152,1085.8433,164,1073.8433" style="stroke:#181818;stroke-width:0.5;"/><text fill="#000000" font-family="sans-serif" font-size="11" lengthAdjust="spacing" textLength="20" x="259.5" y="1108.0537">yes</text><text fill="#000000" font-family="sans-serif" font-size="11" font-weight="bold" lengthAdjust="spacing" textLength="76" x="164" y="1089.6514">_toDPqueue</text><text fill="#000000" font-family="sans-serif" font-size="11" lengthAdjust="spacing" textLength="103" x="244" y="1089.6514">items to process?</text><text fill="#000000" font-family="sans-serif" font-size="11" lengthAdjust="spacing" textLength="14" x="138" y="1083.249">no</text><ellipse cx="255.5" cy="1332.0581" fill="none" rx="11" ry="11" style="stroke:#222222;stroke-width:1.0;"/><ellipse cx="255.5" cy="1332.0581" fill="#222222" rx="6" ry="6" style="stroke:#222222;stroke-width:1.0;"/><rect fill="none" height="592.1479" style="stroke:#000000;stroke-width:1.5;" width="664.25" x="704" y="413.2695"/><path d="M798,413.2695 L798,422.5664 L788,432.5664 L704,432.5664 " fill="none" style="stroke:#000000;stroke-width:1.5;"/><text fill="#000000" font-family="sans-serif" font-size="14" lengthAdjust="spacing" textLength="84" x="707" y="427.2646">ThreadPerIP</text><ellipse cx="1050.25" cy="459.5664" fill="#222222" rx="10" ry="10" style="stroke:#222222;stroke-width:1.0;"/><path d="M1080.25,535.2769 L1080.25,551.4097 L1060.25,555.4097 L1080.25,559.4097 L1080.25,575.5425 A0,0 0 0 0 1080.25,575.5425 L1356.25,575.5425 A0,0 0 0 0 1356.25,575.5425 L1356.25,545.2769 L1346.25,535.2769 L1080.25,535.2769 A0,0 0 0 0 1080.25,535.2769 " fill="#FEFFDD" style="stroke:#181818;stroke-width:0.5;"/><path d="M1346.25,535.2769 L1346.25,545.2769 L1356.25,545.2769 L1346.25,535.2769 " fill="#FEFFDD" style="stroke:#181818;stroke-width:0.5;"/><text fill="#000000" font-family="sans-serif" font-size="13" font-weight="bold" lengthAdjust="spacing" textLength="255" x="1086.25" y="552.3438">RAMS7200LibFacade.WriteToPLC()</text><text fill="#000000" font-family="sans-serif" font-size="13" lengthAdjust="spacing" textLength="235" x="1086.25" y="567.4766">(sends the queued items to the PLC)</text><ellipse cx="1050.25" cy="555.4097" fill="#F1F1F1" rx="10" ry="10" style="stroke:#181818;stroke-width:0.5;"/><path d="M1047.9219,551.1597 L1052.9531,551.1597 L1052.9531,552.1597 L1049.1094,552.1597 L1049.1094,554.7378 L1052.5781,554.7378 L1052.5781,555.7378 L1049.1094,555.7378 L1049.1094,559.9097 L1047.9219,559.9097 L1047.9219,551.1597 Z " fill="#000000"/><path d="M1080.25,610.5425 L1080.25,619.1089 L1060.25,623.1089 L1080.25,627.1089 L1080.25,635.6753 A0,0 0 0 0 1080.25,635.6753 L1299.25,635.6753 A0,0 0 0 0 1299.25,635.6753 L1299.25,620.5425 L1289.25,610.5425 L1080.25,610.5425 A0,0 0 0 0 1080.25,610.5425 " fill="#FEFFDD" style="stroke:#181818;stroke-width:0.5;"/><path d="M1289.25,610.5425 L1289.25,620.5425 L1299.25,620.5425 L1289.25,610.5425 " fill="#FEFFDD" style="stroke:#181818;stroke-width:0.5;"/><text fill="#000000" font-family="sans-serif" font-size="13" font-weight="bold" lengthAdjust="spacing" textLength="198" x="1086.25" y="627.6094">RAMS7200LibFacade.Poll()</text><ellipse cx="1050.25" cy="623.1089" fill="#F1F1F1" rx="10" ry="10" style="stroke:#181818;stroke-width:0.5;"/><path d="M1047.9219,618.8589 L1052.9531,618.8589 L1052.9531,619.8589 L1049.1094,619.8589 L1049.1094,622.437 L1052.5781,622.437 L1052.5781,623.437 L1049.1094,623.437 L1049.1094,627.6089 L1047.9219,627.6089 L1047.9219,618.8589 Z " fill="#000000"/><polygon fill="#F1F1F1" points="992.75,731.48,1107.75,731.48,1119.75,743.48,1107.75,755.48,992.75,755.48,980.75,743.48,992.75,731.48" style="stroke:#181818;stroke-width:0.5;"/><text fill="#000000" font-family="sans-serif" font-size="11" lengthAdjust="spacing" textLength="115" x="992.75" y="747.2881">smoothing enabled?</text><text fill="#000000" font-family="sans-serif" font-size="11" lengthAdjust="spacing" textLength="20" x="960.75" y="740.8857">yes</text><text fill="#000000" font-family="sans-serif" font-size="11" lengthAdjust="spacing" textLength="14" x="1119.75" y="740.8857">no</text><rect fill="#F1F1F1" height="33.9688" rx="12.5" ry="12.5" style="stroke:#181818;stroke-width:0.5;" width="306" x="772" y="765.48"/><text fill="#000000" font-family="sans-serif" font-size="12" lengthAdjust="spacing" textLength="286" x="782" y="786.6187">compare last values and send only if different</text><rect fill="#F1F1F1" height="33.9688" rx="12.5" ry="12.5" style="stroke:#181818;stroke-width:0.5;" width="155" x="1098" y="765.48"/><text fill="#000000" font-family="sans-serif" font-size="12" lengthAdjust="spacing" textLength="135" x="1108" y="786.6187">send all polled values</text><polygon fill="#F1F1F1" points="1050.25,805.4487,1062.25,817.4487,1050.25,829.4487,1038.25,817.4487,1050.25,805.4487" style="stroke:#181818;stroke-width:0.5;"/><rect fill="#F1F1F1" height="33.9688" rx="12.5" ry="12.5" style="stroke:#181818;stroke-width:0.5;" width="326" x="887.25" y="849.4487"/><text fill="#000000" font-family="sans-serif" font-size="12" font-weight="bold" lengthAdjust="spacing" textLength="247" x="897.25" y="870.5874">RAMS7200HWService::queueToDP()</text><text fill="#000000" font-family="sans-serif" font-size="12" lengthAdjust="spacing" textLength="51" x="1152.25" y="870.5874">callback</text><polygon fill="#F1F1F1" points="977.25,670.6753,1123.25,670.6753,1135.25,682.6753,1123.25,694.6753,977.25,694.6753,965.25,682.6753,977.25,670.6753" style="stroke:#181818;stroke-width:0.5;"/><text fill="#000000" font-family="sans-serif" font-size="11" lengthAdjust="spacing" textLength="20" x="1054.25" y="704.8857">yes</text><text fill="#000000" font-family="sans-serif" font-size="11" lengthAdjust="spacing" textLength="146" x="977.25" y="686.4834">polled values to process?</text><text fill="#000000" font-family="sans-serif" font-size="11" lengthAdjust="spacing" textLength="14" x="951.25" y="680.0811">no</text><polygon fill="#F1F1F1" points="980.25,489.5664,1120.25,489.5664,1132.25,501.5664,1120.25,513.5664,980.25,513.5664,968.25,501.5664,980.25,489.5664" style="stroke:#181818;stroke-width:0.5;"/><text fill="#000000" font-family="sans-serif" font-size="11" lengthAdjust="spacing" textLength="20" x="1054.25" y="523.7769">yes</text><text fill="#000000" font-family="sans-serif" font-size="11" font-weight="bold" lengthAdjust="spacing" textLength="134" x="980.25" y="505.3745">_driverRun &amp; ms._run</text><text fill="#000000" font-family="sans-serif" font-size="11" lengthAdjust="spacing" textLength="6" x="1114.25" y="505.3745">?</text><text fill="#000000" font-family="sans-serif" font-size="11" lengthAdjust="spacing" textLength="14" x="954.25" y="498.9722">no</text><ellipse cx="1050.25" cy="975.5464" fill="none" rx="11" ry="11" style="stroke:#222222;stroke-width:1.0;"/><ellipse cx="1050.25" cy="975.5464" fill="#222222" rx="6" ry="6" style="stroke:#222222;stroke-width:1.0;"/><rect fill="none" height="483.375" style="stroke:#000000;stroke-width:1.5;" width="418" x="851.75" y="1033.4175"/><path d="M1044.75,1033.4175 L1044.75,1042.7144 L1034.75,1052.7144 L851.75,1052.7144 " fill="none" style="stroke:#000000;stroke-width:1.5;"/><text fill="#000000" font-family="sans-serif" font-size="14" lengthAdjust="spacing" textLength="183" x="854.75" y="1047.4126">RAMS7200LibFacade.poll()</text><ellipse cx="1050.25" cy="1072.7144" fill="#222222" rx="10" ry="10" style="stroke:#222222;stroke-width:1.0;"/><rect fill="none" height="183.707" style="stroke:#000000;stroke-width:1.5;" width="398" x="861.75" y="1117.7144"/><path d="M1106.75,1117.7144 L1106.75,1127.0112 L1096.75,1137.0112 L861.75,1137.0112 " fill="none" style="stroke:#000000;stroke-width:1.5;"/><text fill="#000000" font-family="sans-serif" font-size="14" lengthAdjust="spacing" textLength="235" x="864.75" y="1131.7095">Loop Over all Addresses of the MS</text><rect fill="#F1F1F1" height="33.9688" rx="12.5" ry="12.5" style="stroke:#181818;stroke-width:0.5;" width="109" x="995.75" y="1202.4136"/><text fill="#000000" font-family="sans-serif" font-size="12" lengthAdjust="spacing" textLength="89" x="1005.75" y="1223.5522">Add to poll list</text><polygon fill="#F1F1F1" points="883.75,1154.0112,1216.75,1154.0112,1228.75,1166.0112,1216.75,1178.0112,883.75,1178.0112,871.75,1166.0112,883.75,1154.0112" style="stroke:#181818;stroke-width:0.5;"/><text fill="#000000" font-family="sans-serif" font-size="11" lengthAdjust="spacing" textLength="21" x="1054.25" y="1188.2217">Yes</text><text fill="#000000" font-family="sans-serif" font-size="11" lengthAdjust="spacing" textLength="333" x="883.75" y="1169.8193">Current Time - Last Write time of Address &gt;= Polling Time</text><polygon fill="#F1F1F1" points="1050.25,1260.7847,1062.25,1272.7847,1050.25,1284.7847,1038.25,1272.7847,1050.25,1260.7847" style="stroke:#181818;stroke-width:0.5;"/><rect fill="#F1F1F1" height="33.9688" rx="12.5" ry="12.5" style="stroke:#181818;stroke-width:0.5;" width="190" x="955.25" y="1384.8237"/><text fill="#000000" font-family="sans-serif" font-size="12" font-weight="bold" lengthAdjust="spacing" textLength="170" x="965.25" y="1405.9624">read from PLC via snap7</text><polygon fill="#F1F1F1" points="990.75,1336.4214,1109.75,1336.4214,1121.75,1348.4214,1109.75,1360.4214,990.75,1360.4214,978.75,1348.4214,990.75,1336.4214" style="stroke:#181818;stroke-width:0.5;"/><text fill="#000000" font-family="sans-serif" font-size="11" lengthAdjust="spacing" textLength="21" x="1054.25" y="1370.6318">Yes</text><text fill="#000000" font-family="sans-serif" font-size="11" lengthAdjust="spacing" textLength="119" x="990.75" y="1352.2295">Poll List is not empty</text><polygon fill="#F1F1F1" points="1050.25,1438.7925,1062.25,1450.7925,1050.25,1462.7925,1038.25,1450.7925,1050.25,1438.7925" style="stroke:#181818;stroke-width:0.5;"/><ellipse cx="1050.25" cy="1493.7925" fill="none" rx="11" ry="11" style="stroke:#222222;stroke-width:1.0;"/><ellipse cx="1050.25" cy="1493.7925" fill="#222222" rx="6" ry="6" style="stroke:#222222;stroke-width:1.0;"/><rect fill="#555555" height="6" rx="2.5" ry="2.5" style="stroke:#555555;stroke-width:1.0;" width="1369.25" x="11" y="1526.7925"/><ellipse cx="700.625" cy="1562.7925" fill="none" rx="10" ry="10" style="stroke:#222222;stroke-width:1.5;"/><line style="stroke:#222222;stroke-width:2.5;" x1="694.4378" x2="706.8122" y1="1556.6053" y2="1568.9797"/><line style="stroke:#222222;stroke-width:2.5;" x1="706.8122" x2="694.4378" y1="1556.6053" y2="1568.9797"/><line style="stroke:#181818;stroke-width:1.0;" x1="700.625" x2="700.625" y1="30" y2="58.2813"/><polygon fill="#181818" points="696.625,48.2813,700.625,58.2813,704.625,48.2813,700.625,52.2813" style="stroke:#181818;stroke-width:1.0;"/><line style="stroke:#181818;stroke-width:1.0;" x1="700.625" x2="700.625" y1="92.25" y2="130.5313"/><polygon fill="#181818" points="696.625,120.5313,700.625,130.5313,704.625,120.5313,700.625,124.5313" style="stroke:#181818;stroke-width:1.0;"/><line style="stroke:#181818;stroke-width:1.0;" x1="700.625" x2="700.625" y1="164.5" y2="184.5"/><polygon fill="#181818" points="696.625,174.5,700.625,184.5,704.625,174.5,700.625,178.5" style="stroke:#181818;stroke-width:1.0;"/><line style="stroke:#181818;stroke-width:1.0;" x1="418.625" x2="418.625" y1="318.7031" y2="338.7031"/><polygon fill="#181818" points="414.625,328.7031,418.625,338.7031,422.625,328.7031,418.625,332.7031" style="stroke:#181818;stroke-width:1.0;"/><line style="stroke:#181818;stroke-width:1.0;" x1="647.625" x2="647.625" y1="318.7031" y2="338.7031"/><polygon fill="#181818" points="643.625,328.7031,647.625,338.7031,651.625,328.7031,647.625,332.7031" style="stroke:#181818;stroke-width:1.0;"/><line style="stroke:#000000;stroke-width:1.5;stroke-dasharray:1.0,3.0;" x1="877.125" x2="877.125" y1="316.1367" y2="338.7031"/><polygon fill="#000000" points="873.125,328.7031,877.125,338.7031,881.125,328.7031,877.125,332.7031" style="stroke:#000000;stroke-width:1.0;"/><line style="stroke:#181818;stroke-width:1.0;" x1="418.625" x2="418.625" y1="262.168" y2="284.7344"/><polygon fill="#181818" points="414.625,274.7344,418.625,284.7344,422.625,274.7344,418.625,278.7344" style="stroke:#181818;stroke-width:1.0;"/><line style="stroke:#181818;stroke-width:1.0;" x1="647.625" x2="647.625" y1="262.168" y2="284.7344"/><polygon fill="#181818" points="643.625,274.7344,647.625,284.7344,651.625,274.7344,647.625,278.7344" style="stroke:#181818;stroke-width:1.0;"/><line style="stroke:#000000;stroke-width:1.5;stroke-dasharray:1.0,3.0;" x1="877.125" x2="877.125" y1="262.168" y2="282.168"/><polygon fill="#000000" points="873.125,272.168,877.125,282.168,881.125,272.168,877.125,276.168" style="stroke:#000000;stroke-width:1.0;"/><line style="stroke:#181818;stroke-width:1.0;" x1="700.625" x2="700.625" y1="232.4375" y2="256.168"/><polygon fill="#181818" points="696.625,246.168,700.625,256.168,704.625,246.168,700.625,250.168" style="stroke:#181818;stroke-width:1.0;"/><line style="stroke:#181818;stroke-width:1.0;" x1="255.5" x2="255.5" y1="620.6089" y2="655.6089"/><polygon fill="#181818" points="251.5,645.6089,255.5,655.6089,259.5,645.6089,255.5,649.6089" style="stroke:#181818;stroke-width:1.0;"/><line style="stroke:#181818;stroke-width:1.0;" x1="150" x2="150" y1="773.5776" y2="793.5776"/><polygon fill="#181818" points="146,783.5776,150,793.5776,154,783.5776,150,787.5776" style="stroke:#181818;stroke-width:1.0;"/><line style="stroke:#181818;stroke-width:1.0;" x1="150" x2="150" y1="827.5464" y2="887.5464"/><polygon fill="#181818" points="146,877.5464,150,887.5464,154,877.5464,150,881.5464" style="stroke:#181818;stroke-width:1.0;"/><line style="stroke:#181818;stroke-width:1.0;" x1="357.5" x2="357.5" y1="773.5776" y2="793.5776"/><polygon fill="#181818" points="353.5,783.5776,357.5,793.5776,361.5,783.5776,357.5,787.5776" style="stroke:#181818;stroke-width:1.0;"/><line style="stroke:#181818;stroke-width:1.0;" x1="357.5" x2="357.5" y1="827.5464" y2="887.5464"/><polygon fill="#181818" points="353.5,877.5464,357.5,887.5464,361.5,877.5464,357.5,881.5464" style="stroke:#181818;stroke-width:1.0;"/><line style="stroke:#181818;stroke-width:1.0;" x1="220" x2="287" y1="761.5776" y2="761.5776"/><polygon fill="#181818" points="277,757.5776,287,761.5776,277,765.5776,281,761.5776" style="stroke:#181818;stroke-width:1.0;"/><line style="stroke:#181818;stroke-width:1.0;" x1="255.5" x2="255.5" y1="689.5776" y2="724.5776"/><line style="stroke:#181818;stroke-width:1.0;" x1="255.5" x2="150" y1="724.5776" y2="724.5776"/><line style="stroke:#181818;stroke-width:1.0;" x1="150" x2="150" y1="724.5776" y2="749.5776"/><polygon fill="#181818" points="146,739.5776,150,749.5776,154,739.5776,150,743.5776" style="stroke:#181818;stroke-width:1.0;"/><line style="stroke:#181818;stroke-width:1.0;" x1="428" x2="463" y1="761.5776" y2="761.5776"/><line style="stroke:#181818;stroke-width:1.0;" x1="463" x2="463" y1="761.5776" y2="887.5464"/><polygon fill="#181818" points="459,877.5464,463,887.5464,467,877.5464,463,881.5464" style="stroke:#181818;stroke-width:1.0;"/><line style="stroke:#181818;stroke-width:1.0;" x1="150" x2="463" y1="887.5464" y2="887.5464"/><line style="stroke:#181818;stroke-width:1.0;" x1="255.5" x2="255.5" y1="887.5464" y2="922.5464"/><polygon fill="#181818" points="251.5,912.5464,255.5,922.5464,259.5,912.5464,255.5,916.5464" style="stroke:#181818;stroke-width:1.0;"/><line style="stroke:#181818;stroke-width:1.0;" x1="255.5" x2="255.5" y1="1158.6479" y2="1183.0503"/><polygon fill="#181818" points="251.5,1173.0503,255.5,1183.0503,259.5,1173.0503,255.5,1177.0503" style="stroke:#181818;stroke-width:1.0;"/><line style="stroke:#181818;stroke-width:1.0;" x1="352" x2="633" y1="1146.6479" y2="1146.6479"/><polygon fill="#181818" points="629,1190.0347,633,1200.0347,637,1190.0347,633,1194.0347" style="stroke:#181818;stroke-width:1.0;"/><line style="stroke:#181818;stroke-width:1.0;" x1="633" x2="633" y1="1146.6479" y2="1253.4214"/><line style="stroke:#181818;stroke-width:1.0;" x1="633" x2="267.5" y1="1253.4214" y2="1253.4214"/><polygon fill="#181818" points="277.5,1249.4214,267.5,1253.4214,277.5,1257.4214,273.5,1253.4214" style="stroke:#181818;stroke-width:1.0;"/><line style="stroke:#181818;stroke-width:1.0;" x1="255.5" x2="255.5" y1="1217.019" y2="1241.4214"/><polygon fill="#181818" points="251.5,1231.4214,255.5,1241.4214,259.5,1231.4214,255.5,1235.4214" style="stroke:#181818;stroke-width:1.0;"/><line style="stroke:#181818;stroke-width:1.0;" x1="255.5" x2="255.5" y1="1097.8433" y2="1134.6479"/><polygon fill="#181818" points="251.5,1124.6479,255.5,1134.6479,259.5,1124.6479,255.5,1128.6479" style="stroke:#181818;stroke-width:1.0;"/><line style="stroke:#181818;stroke-width:1.0;" x1="255.5" x2="255.5" y1="1265.4214" y2="1277.4214"/><line style="stroke:#181818;stroke-width:1.0;" x1="255.5" x2="657" y1="1277.4214" y2="1277.4214"/><polygon fill="#181818" points="653,1191.6323,657,1181.6323,661,1191.6323,657,1187.6323" style="stroke:#181818;stroke-width:1.0;"/><line style="stroke:#181818;stroke-width:1.0;" x1="657" x2="657" y1="1085.8433" y2="1277.4214"/><line style="stroke:#181818;stroke-width:1.0;" x1="657" x2="359" y1="1085.8433" y2="1085.8433"/><polygon fill="#181818" points="369,1081.8433,359,1085.8433,369,1089.8433,365,1085.8433" style="stroke:#181818;stroke-width:1.0;"/><line style="stroke:#181818;stroke-width:1.0;" x1="152" x2="140" y1="1085.8433" y2="1085.8433"/><polygon fill="#181818" points="136,1177.6323,140,1187.6323,144,1177.6323,140,1181.6323" style="stroke:#181818;stroke-width:1.0;"/><line style="stroke:#181818;stroke-width:1.0;" x1="140" x2="140" y1="1085.8433" y2="1289.4214"/><line style="stroke:#181818;stroke-width:1.0;" x1="140" x2="255.5" y1="1289.4214" y2="1289.4214"/><line style="stroke:#181818;stroke-width:1.0;" x1="255.5" x2="255.5" y1="1289.4214" y2="1321.0581"/><polygon fill="#181818" points="251.5,1311.0581,255.5,1321.0581,259.5,1311.0581,255.5,1315.0581" style="stroke:#181818;stroke-width:1.0;"/><line style="stroke:#181818;stroke-width:1.0;" x1="255.5" x2="255.5" y1="1045.8433" y2="1073.8433"/><polygon fill="#181818" points="251.5,1063.8433,255.5,1073.8433,259.5,1063.8433,255.5,1067.8433" style="stroke:#181818;stroke-width:1.0;"/><line style="stroke:#181818;stroke-width:1.0;" x1="1050.25" x2="1050.25" y1="565.4097" y2="613.1089"/><polygon fill="#181818" points="1046.25,603.1089,1050.25,613.1089,1054.25,603.1089,1050.25,607.1089" style="stroke:#181818;stroke-width:1.0;"/><line style="stroke:#181818;stroke-width:1.0;" x1="980.75" x2="925" y1="743.48" y2="743.48"/><line style="stroke:#181818;stroke-width:1.0;" x1="925" x2="925" y1="743.48" y2="765.48"/><polygon fill="#181818" points="921,755.48,925,765.48,929,755.48,925,759.48" style="stroke:#181818;stroke-width:1.0;"/><line style="stroke:#181818;stroke-width:1.0;" x1="1119.75" x2="1175.5" y1="743.48" y2="743.48"/><line style="stroke:#181818;stroke-width:1.0;" x1="1175.5" x2="1175.5" y1="743.48" y2="765.48"/><polygon fill="#181818" points="1171.5,755.48,1175.5,765.48,1179.5,755.48,1175.5,759.48" style="stroke:#181818;stroke-width:1.0;"/><line style="stroke:#181818;stroke-width:1.0;" x1="925" x2="925" y1="799.4487" y2="817.4487"/><line style="stroke:#181818;stroke-width:1.0;" x1="925" x2="1038.25" y1="817.4487" y2="817.4487"/><polygon fill="#181818" points="1028.25,813.4487,1038.25,817.4487,1028.25,821.4487,1032.25,817.4487" style="stroke:#181818;stroke-width:1.0;"/><line style="stroke:#181818;stroke-width:1.0;" x1="1175.5" x2="1175.5" y1="799.4487" y2="817.4487"/><line style="stroke:#181818;stroke-width:1.0;" x1="1175.5" x2="1062.25" y1="817.4487" y2="817.4487"/><polygon fill="#181818" points="1072.25,813.4487,1062.25,817.4487,1072.25,821.4487,1068.25,817.4487" style="stroke:#181818;stroke-width:1.0;"/><line style="stroke:#181818;stroke-width:1.0;" x1="1050.25" x2="1050.25" y1="829.4487" y2="849.4487"/><polygon fill="#181818" points="1046.25,839.4487,1050.25,849.4487,1054.25,839.4487,1050.25,843.4487" style="stroke:#181818;stroke-width:1.0;"/><line style="stroke:#181818;stroke-width:1.0;" x1="1050.25" x2="1050.25" y1="694.6753" y2="731.48"/><polygon fill="#181818" points="1046.25,721.48,1050.25,731.48,1054.25,721.48,1050.25,725.48" style="stroke:#181818;stroke-width:1.0;"/><line style="stroke:#181818;stroke-width:1.0;" x1="1050.25" x2="1050.25" y1="883.4175" y2="895.4175"/><line style="stroke:#181818;stroke-width:1.0;" x1="1050.25" x2="1275" y1="895.4175" y2="895.4175"/><polygon fill="#181818" points="1271,806.5464,1275,796.5464,1279,806.5464,1275,802.5464" style="stroke:#181818;stroke-width:1.0;"/><line style="stroke:#181818;stroke-width:1.0;" x1="1275" x2="1275" y1="682.6753" y2="895.4175"/><line style="stroke:#181818;stroke-width:1.0;" x1="1275" x2="1135.25" y1="682.6753" y2="682.6753"/><polygon fill="#181818" points="1145.25,678.6753,1135.25,682.6753,1145.25,686.6753,1141.25,682.6753" style="stroke:#181818;stroke-width:1.0;"/><line style="stroke:#181818;stroke-width:1.0;" x1="965.25" x2="750" y1="682.6753" y2="682.6753"/><polygon fill="#181818" points="746,792.5464,750,802.5464,754,792.5464,750,796.5464" style="stroke:#181818;stroke-width:1.0;"/><line style="stroke:#181818;stroke-width:1.0;" x1="750" x2="750" y1="682.6753" y2="907.4175"/><line style="stroke:#181818;stroke-width:1.0;" x1="750" x2="1361.25" y1="907.4175" y2="907.4175"/><line style="stroke:#181818;stroke-width:1.0;" x1="1361.25" x2="1361.25" y1="501.5664" y2="907.4175"/><line style="stroke:#181818;stroke-width:1.0;" x1="1361.25" x2="1132.25" y1="501.5664" y2="501.5664"/><polygon fill="#181818" points="1142.25,497.5664,1132.25,501.5664,1142.25,505.5664,1138.25,501.5664" style="stroke:#181818;stroke-width:1.0;"/><line style="stroke:#181818;stroke-width:1.0;" x1="1050.25" x2="1050.25" y1="633.1089" y2="670.6753"/><polygon fill="#181818" points="1046.25,660.6753,1050.25,670.6753,1054.25,660.6753,1050.25,664.6753" style="stroke:#181818;stroke-width:1.0;"/><line style="stroke:#181818;stroke-width:1.0;" x1="1050.25" x2="1050.25" y1="513.5664" y2="545.4097"/><polygon fill="#181818" points="1046.25,535.4097,1050.25,545.4097,1054.25,535.4097,1050.25,539.4097" style="stroke:#181818;stroke-width:1.0;"/><line style="stroke:#181818;stroke-width:1.0;" x1="968.25" x2="726" y1="501.5664" y2="501.5664"/><polygon fill="#181818" points="722,706.4448,726,716.4448,730,706.4448,726,710.4448" style="stroke:#181818;stroke-width:1.0;"/><line style="stroke:#181818;stroke-width:1.0;" x1="726" x2="726" y1="501.5664" y2="931.4175"/><line style="stroke:#181818;stroke-width:1.0;" x1="726" x2="1050.25" y1="931.4175" y2="931.4175"/><line style="stroke:#181818;stroke-width:1.0;" x1="1050.25" x2="1050.25" y1="931.4175" y2="964.5464"/><polygon fill="#181818" points="1046.25,954.5464,1050.25,964.5464,1054.25,954.5464,1050.25,958.5464" style="stroke:#181818;stroke-width:1.0;"/><line style="stroke:#181818;stroke-width:1.0;" x1="1050.25" x2="1050.25" y1="469.5664" y2="489.5664"/><polygon fill="#181818" points="1046.25,479.5664,1050.25,489.5664,1054.25,479.5664,1050.25,483.5664" style="stroke:#181818;stroke-width:1.0;"/><line style="stroke:#181818;stroke-width:1.0;" x1="1050.25" x2="1050.25" y1="1178.0112" y2="1202.4136"/><polygon fill="#181818" points="1046.25,1192.4136,1050.25,1202.4136,1054.25,1192.4136,1050.25,1196.4136" style="stroke:#181818;stroke-width:1.0;"/><line style="stroke:#181818;stroke-width:1.0;" x1="1228.75" x2="1240.75" y1="1166.0112" y2="1166.0112"/><polygon fill="#181818" points="1236.75,1209.3979,1240.75,1219.3979,1244.75,1209.3979,1240.75,1213.3979" style="stroke:#181818;stroke-width:1.0;"/><line style="stroke:#181818;stroke-width:1.0;" x1="1240.75" x2="1240.75" y1="1166.0112" y2="1272.7847"/><line style="stroke:#181818;stroke-width:1.0;" x1="1240.75" x2="1062.25" y1="1272.7847" y2="1272.7847"/><polygon fill="#181818" points="1072.25,1268.7847,1062.25,1272.7847,1072.25,1276.7847,1068.25,1272.7847" style="stroke:#181818;stroke-width:1.0;"/><line style="stroke:#181818;stroke-width:1.0;" x1="1050.25" x2="1050.25" y1="1236.3823" y2="1260.7847"/><polygon fill="#181818" points="1046.25,1250.7847,1050.25,1260.7847,1054.25,1250.7847,1050.25,1254.7847" style="stroke:#181818;stroke-width:1.0;"/><line style="stroke:#181818;stroke-width:1.0;" x1="1050.25" x2="1050.25" y1="1082.7144" y2="1154.0112"/><polygon fill="#181818" points="1046.25,1144.0112,1050.25,1154.0112,1054.25,1144.0112,1050.25,1148.0112" style="stroke:#181818;stroke-width:1.0;"/><line style="stroke:#181818;stroke-width:1.0;" x1="1050.25" x2="1050.25" y1="1360.4214" y2="1384.8237"/><polygon fill="#181818" points="1046.25,1374.8237,1050.25,1384.8237,1054.25,1374.8237,1050.25,1378.8237" style="stroke:#181818;stroke-width:1.0;"/><line style="stroke:#181818;stroke-width:1.0;" x1="1121.75" x2="1155.25" y1="1348.4214" y2="1348.4214"/><polygon fill="#181818" points="1151.25,1391.8081,1155.25,1401.8081,1159.25,1391.8081,1155.25,1395.8081" style="stroke:#181818;stroke-width:1.0;"/><line style="stroke:#181818;stroke-width:1.0;" x1="1155.25" x2="1155.25" y1="1348.4214" y2="1450.7925"/><line style="stroke:#181818;stroke-width:1.0;" x1="1155.25" x2="1062.25" y1="1450.7925" y2="1450.7925"/><polygon fill="#181818" points="1072.25,1446.7925,1062.25,1450.7925,1072.25,1454.7925,1068.25,1450.7925" style="stroke:#181818;stroke-width:1.0;"/><line style="stroke:#181818;stroke-width:1.0;" x1="1050.25" x2="1050.25" y1="1418.7925" y2="1438.7925"/><polygon fill="#181818" points="1046.25,1428.7925,1050.25,1438.7925,1054.25,1428.7925,1050.25,1432.7925" style="stroke:#181818;stroke-width:1.0;"/><line style="stroke:#181818;stroke-width:1.0;" x1="1050.25" x2="1050.25" y1="1284.7847" y2="1336.4214"/><polygon fill="#181818" points="1046.25,1326.4214,1050.25,1336.4214,1054.25,1326.4214,1050.25,1330.4214" style="stroke:#181818;stroke-width:1.0;"/><line style="stroke:#181818;stroke-width:1.0;" x1="1050.25" x2="1050.25" y1="1462.7925" y2="1482.7925"/><polygon fill="#181818" points="1046.25,1472.7925,1050.25,1482.7925,1054.25,1472.7925,1050.25,1476.7925" style="stroke:#181818;stroke-width:1.0;"/><line style="stroke:#181818;stroke-width:1.0;" x1="255.5" x2="255.5" y1="403.2695" y2="600.6089"/><polygon fill="#181818" points="251.5,590.6089,255.5,600.6089,259.5,590.6089,255.5,594.6089" style="stroke:#181818;stroke-width:1.0;"/><line style="stroke:#181818;stroke-width:1.0;" x1="1050.25" x2="1050.25" y1="403.2695" y2="449.5664"/><polygon fill="#181818" points="1046.25,439.5664,1050.25,449.5664,1054.25,439.5664,1050.25,443.5664" style="stroke:#181818;stroke-width:1.0;"/><line style="stroke:#181818;stroke-width:1.0;" x1="700.625" x2="700.625" y1="377.2695" y2="397.2695"/><polygon fill="#181818" points="696.625,387.2695,700.625,397.2695,704.625,387.2695,700.625,391.2695" style="stroke:#181818;stroke-width:1.0;"/><line style="stroke:#181818;stroke-width:1.0;" x1="700.625" x2="700.625" y1="1532.7925" y2="1552.7925"/><polygon fill="#181818" points="696.625,1542.7925,700.625,1552.7925,704.625,1542.7925,700.625,1546.7925" style="stroke:#181818;stroke-width:1.0;"/><!--SRC=[ZLPjQ-D64FxkNp5GA18uxhLV3kIhZs3tk81z4R4Xb5AEjJIojoVjghkhkEQu_zxPqMiSvKLV4grtNfvddfcHTSAuoIIwGv72X_qYqIgJXzdTzMRx_hTtxpxyibz09dESJvHs24OUZcu2z7W32-w8K9jKHZYf5Q1oHgAT6YoyWL0fv3eHEUosrp6KshWfsvSwpwKwt2Y7va7aKx25rkv8HrD8pacE89kVs4SX_WDL5NiqRAqpkBc5JCYyCcWXqmOCKY8A4yxYGGg-HuXQA7TeTMKIj55aAFTjVJC8FSG9KWW6241SD1QVxxUKW4mmYgodAGXXJbIjHQMI8mW2xnrnS1HqSXF3TPfIFXQ4jJgHmc4A9-cEp5Dgv0Ebtp2PO-RQ564auf5Gv_W5JvijnUKa_Ur0v5O3yPdlHVADOoiymMOBeWvD4QKQnlDMH8UFOz6nmsLZNeCFE_GJSlUD3Q8TOulH42WVP83jrtcToQUG_wRe23oRWZW8gLvrC9lDNd41V7prrq_xdDASfjeHatzVBLvr_MN-acKRxqBA5q9Po_qdaOWKEz87we1XmlwSAPlqp9Ka5CaQ72dgoKY7A-44bVHx5vl5rRr5An9oYl3v_dR_3uaKCgCBk9TgkPntbsGMwFfNIM9JllxakGXzuLLtYzqDa6ssKVHlXHN6w-KDNQ_httl5tE9ZrqlkxMTzNvTbVcu6mC2DIcKsGATBVldn1dw8nTZev0LwJaUQHX0GggzEhsA6mrFAvqW3IKD93aWB7qCF83YZ3HybBJC8_Dtd6kPZ3NJ4aY6NbJt2Alw31ztPnxieJVkCY6pu482LUTW89GveekY0Rejv5ZiJX5SBGbPswXi-NQTU70xufhU68wN3HgyNTNZIQNrHXhtrOWcu0ZLZTvM2dw6miw-cKZxjvwXl- -yD58tru-pUjyzEatgRiNrf5LX2Nsyb5aRQgyAVaM4uUPNEvxE4jwKPqseRIN0qM5CglmqfMzfs5Rv5nAsGkwL9tiMUNBoiNbPmeWkgDsqWOLqRqQzOpnreHGrDdabH6HhI-5DX-odXjJNkdRtGVe57aEPZIYRHFksl0QE3mS3Lt56_rxn2jm7dbnGFjG_ZJJ7M4a_7Kb_FaklPj4FV2ht9MkiIRgaJ67YpYuXL-ahnigFX_7qukPULySp2JXO8Lx3sTM1fW_CdPDMkiyNl4DVVINovhUsV5xMDw3wBXkv2BgqRcyNr-ANmtYEiwPQN5WaIi2ZTUTIthqRzZUDt4BKFVqbO9Sht_UReGp2VFpplmzL8__uF]--></g></svg>